<svg width="16" height="16" viewBox="0 0 16 16" fill="none" xmlns="http://www.w3.org/2000/svg">
<path d="M15.647 3.87908C15.5552 3.51586 15.3761 3.18473 15.1277 2.91866C14.8792 2.6526 14.57 2.46088 14.2308 2.36261C12.9891 2 7.9919 2 7.9919 2C7.9919 2 2.99453 2.011 1.75297 2.37361C1.41381 2.4719 1.10462 2.66362 0.856174 2.92969C0.607729 3.19575 0.428703 3.52687 0.336924 3.89008C-0.0386658 6.25281 -0.184381 9.85282 0.3472 12.1209C0.438978 12.4841 0.618004 12.8153 0.866449 13.0813C1.11489 13.3474 1.42409 13.5391 1.76325 13.6374C3.0049 14 8.00217 14 8.00217 14C8.00217 14 12.9994 14 14.2411 13.6374C14.5803 13.5391 14.8894 13.3474 15.1379 13.0813C15.3863 12.8153 15.5654 12.4841 15.6571 12.1209C16.0532 9.75494 16.1754 6.15703 15.647 3.87908Z" fill="#FF0000"/>
<path d="M3 8.65847V7.74539L6.20958 6.41089L5.89748 7.40957L4.09055 8.19315L4.12379 8.14486V8.26119L4.09055 8.21071L5.89748 8.99649L6.20958 9.99298L3 8.65847Z" fill="white"/>
<path d="M9.19362 5L7.73069 10.691L6.80638 11L8.26931 5.30904L9.19362 5Z" fill="white"/>
<path d="M13 8.65847L9.79042 9.99298L10.1025 8.99649L11.9095 8.21071L11.8784 8.26119V8.14486L11.9095 8.19315L10.1025 7.40957L9.79042 6.41089L13 7.74539V8.65847Z" fill="white"/>
</svg>
