<svg width="384" height="71" viewBox="0 0 384 71" fill="none" xmlns="http://www.w3.org/2000/svg">
<path d="M122 63.3947V5.21289H132.54V29.8436H159.5V5.21289H170.068V63.3947H159.5V38.6788H132.54V63.3947H122Z" fill="#FE0000"/>
<path d="M141.517 14.0534V5.21821H187.938V14.0534H169.955V63.4H159.5V14.0534H141.517Z" fill="#FE0000"/>
<path d="M187.938 5.21821H200.835L218.108 47.3773H218.79L236.063 5.21821H248.96V63.4H238.847V23.4284H238.307L222.227 63.2296H214.67L198.591 23.3432H198.051V63.4H187.938V5.21821Z" fill="#FE0000"/>
<path d="M238.847 63.402V5.22017H249.386V54.5667H275.011V63.402H238.847Z" fill="#FE0000"/>
<path d="M249.316 14.0554V5.22017L293.612 5L293.716 13.8738H275.316V63.4077H264.862V13.8738L249.316 14.0554Z" fill="#1A1A1A"/>
<path d="M311.625 45.5675V20.2834H321.909V63.9198H311.937V56.1641H311.483C310.498 58.6073 308.879 60.6054 306.625 62.1584C304.39 63.7115 301.634 64.488 298.358 64.488C295.498 64.488 292.97 63.8535 290.773 62.5846C288.595 61.2967 286.89 59.4312 285.659 56.988C284.428 54.5259 283.812 51.5524 283.812 48.0675L283.328 5H293.612L294.097 46.4766C294.097 49.2418 294.854 51.4387 296.369 53.0675C297.884 54.6963 299.873 55.5107 302.335 55.5107C303.85 55.5107 305.318 55.1414 306.739 54.4028C308.159 53.6641 309.324 52.5656 310.233 51.1073C311.161 49.63 311.625 47.7834 311.625 45.5675Z" fill="#1A1A1A"/>
<path d="M311.937 63.9198L311.625 5H321.909V26.7614H322.335C322.866 25.7008 323.614 24.5739 324.58 23.3807C325.545 22.1686 326.852 21.1364 328.5 20.2841C330.148 19.4129 332.25 18.9773 334.807 18.9773C338.178 18.9773 341.218 19.839 343.926 21.5625C346.653 23.267 348.812 25.7955 350.403 29.1477C352.013 32.4811 352.818 36.572 352.818 41.4205C352.818 46.2121 352.032 50.2841 350.46 53.6364C348.888 56.9886 346.748 59.5455 344.04 61.3068C341.331 63.0682 338.263 63.9489 334.835 63.9489C332.335 63.9489 330.261 63.5322 328.614 62.6989C326.966 61.8655 325.64 60.8617 324.636 59.6875C323.652 58.4943 322.884 57.3674 322.335 56.3068H321.909V63.9198H311.937ZM321.71 41.3636C321.71 44.1856 322.108 46.6572 322.903 48.7784C323.718 50.8996 324.883 52.5568 326.398 53.75C327.932 54.9242 329.788 55.5114 331.966 55.5114C334.239 55.5114 336.142 54.9053 337.676 53.6932C339.21 52.4621 340.366 50.786 341.142 48.6648C341.937 46.5246 342.335 44.0909 342.335 41.3636C342.335 38.6553 341.947 36.25 341.17 34.1477C340.394 32.0455 339.239 30.3977 337.705 29.2045C336.17 28.0114 334.258 27.4148 331.966 27.4148C329.769 27.4148 327.903 27.9924 326.369 29.1477C324.835 30.303 323.67 31.9223 322.875 34.0057C322.098 36.089 321.71 38.5417 321.71 41.3636Z" fill="#1A1A1A"/>
<path d="M364.097 65.3788C359.722 65.3788 355.943 64.4697 352.761 62.6515C349.598 60.8144 347.165 58.2197 345.46 54.8674C343.756 51.4962 342.903 47.5284 342.903 42.964C342.903 38.4754 343.756 34.536 345.46 31.1458C347.184 27.7367 349.589 25.0852 352.676 23.1913C355.763 21.2784 359.39 20.322 363.557 20.322C366.246 20.322 368.784 20.7576 371.17 21.6288C373.576 22.4811 375.697 23.8068 377.534 25.6061C379.39 27.4053 380.848 29.697 381.909 32.4811C382.97 35.2462 383.5 38.5417 383.5 42.3674V45.5208H347.733V38.589H373.642C373.623 36.6193 373.197 34.8674 372.364 33.3333C371.53 31.7803 370.365 30.5587 368.869 29.6686C367.392 28.7784 365.669 28.3333 363.699 28.3333C361.597 28.3333 359.75 28.8447 358.159 29.8674C356.568 30.8712 355.328 32.197 354.437 33.8447C353.566 35.4735 353.121 37.2633 353.102 39.214V45.2651C353.102 47.803 353.566 49.9811 354.494 51.7992C355.422 53.5985 356.72 54.9811 358.386 55.947C360.053 56.8939 362.004 57.3674 364.239 57.3674C365.735 57.3674 367.089 57.1591 368.301 56.7424C369.513 56.3068 370.564 55.6723 371.454 54.839C372.345 54.0057 373.017 52.9735 373.472 51.7424L383.074 52.822C382.468 55.3598 381.312 57.5758 379.608 59.4697C377.922 61.3447 375.763 62.803 373.131 63.8447C370.498 64.8674 367.487 65.3788 364.097 65.3788Z" fill="#1A1A1A"/>
<path d="M326.471 49.9998L341.409 41.3517L326.471 32.7031V49.9998Z" fill="#FE0000"/>
<path d="M99.7494 11.1179C99.1643 8.96882 98.0229 7.00963 96.4389 5.43541C94.8549 3.86119 92.8837 2.72688 90.7215 2.14545C82.8053 0 50.9483 0 50.9483 0C50.9483 0 19.0901 0.0651076 11.1752 2.21055C9.01307 2.79209 7.04195 3.92644 5.45811 5.50065C3.87427 7.07486 2.73298 9.034 2.14789 11.183C-0.246494 25.1625 -1.17543 46.4625 2.2134 59.8821C2.79849 62.0311 3.93977 63.9902 5.52361 65.5645C7.10745 67.1387 9.07858 68.273 11.2407 68.8546C19.1563 71 51.0138 71 51.0138 71C51.0138 71 82.8714 71 90.787 68.8546C92.9491 68.273 94.9202 67.1387 96.5041 65.5645C98.0879 63.9902 99.2292 62.0311 99.8143 59.8821C102.339 45.8834 103.118 24.5957 99.7494 11.1179Z" fill="#FF0000"/>
<path d="M19 39.6766V33.7675L39.5682 25.1312L37.5682 31.5942L25.9886 36.6653L26.2017 36.3528V37.1056L25.9886 36.7789L37.5682 41.8641L39.5682 48.313L19 39.6766Z" fill="white"/>
<path d="M58.6911 16.0005L49.3161 52.83L43.3928 54.83L52.7678 18.0005L58.6911 16.0005Z" fill="white"/>
<path d="M83.0838 39.6766L62.5156 48.313L64.5156 41.8641L76.0952 36.7789L75.8963 37.1056V36.3528L76.0952 36.6653L64.5156 31.5942L62.5156 25.1312L83.0838 33.7675V39.6766Z" fill="white"/>
</svg>
